<mxfile host="app.diagrams.net" modified="2023-08-10T06:50:23.429Z" agent="Mozilla/5.0 (Windows NT 10.0; Win64; x64) AppleWebKit/537.36 (KHTML, like Gecko) Chrome/115.0.0.0 Safari/537.36 Edg/115.0.1901.188" etag="L3of2Zv8X9soyLK_vwN0" version="21.6.7" type="device">
  <diagram name="Page-1" id="ix2XUTXspOpvpq3OnrL2">
    <mxGraphModel dx="483" dy="484" grid="1" gridSize="10" guides="1" tooltips="1" connect="1" arrows="1" fold="1" page="1" pageScale="1" pageWidth="850" pageHeight="1100" math="0" shadow="0">
      <root>
        <mxCell id="0" />
        <mxCell id="1" parent="0" />
        <mxCell id="Za7U5jAWUD_XL2YL6yQE-1" value="" style="sketch=0;aspect=fixed;pointerEvents=1;shadow=0;dashed=0;html=1;strokeColor=none;labelPosition=center;verticalLabelPosition=bottom;verticalAlign=top;align=center;fillColor=#00188D;shape=mxgraph.azure.laptop" vertex="1" parent="1">
          <mxGeometry x="80" y="140" width="116.67" height="70" as="geometry" />
        </mxCell>
        <mxCell id="Za7U5jAWUD_XL2YL6yQE-2" value="" style="outlineConnect=0;dashed=0;verticalLabelPosition=bottom;verticalAlign=top;align=center;html=1;shape=mxgraph.aws3.ec2;fillColor=#F58534;gradientColor=none;" vertex="1" parent="1">
          <mxGeometry x="425" y="128.5" width="76.5" height="93" as="geometry" />
        </mxCell>
        <mxCell id="Za7U5jAWUD_XL2YL6yQE-3" value="" style="endArrow=classic;html=1;rounded=0;exitX=1.029;exitY=0.671;exitDx=0;exitDy=0;exitPerimeter=0;entryX=0;entryY=0.5;entryDx=0;entryDy=0;entryPerimeter=0;" edge="1" parent="1" source="Za7U5jAWUD_XL2YL6yQE-1" target="Za7U5jAWUD_XL2YL6yQE-2">
          <mxGeometry width="50" height="50" relative="1" as="geometry">
            <mxPoint x="230" y="280" as="sourcePoint" />
            <mxPoint x="280" y="230" as="targetPoint" />
          </mxGeometry>
        </mxCell>
        <mxCell id="Za7U5jAWUD_XL2YL6yQE-4" value="22" style="text;html=1;strokeColor=none;fillColor=none;align=center;verticalAlign=middle;whiteSpace=wrap;rounded=0;" vertex="1" parent="1">
          <mxGeometry x="310" y="191.5" width="60" height="30" as="geometry" />
        </mxCell>
        <mxCell id="Za7U5jAWUD_XL2YL6yQE-5" value="ssh" style="text;html=1;strokeColor=none;fillColor=none;align=center;verticalAlign=middle;whiteSpace=wrap;rounded=0;" vertex="1" parent="1">
          <mxGeometry x="240" y="200" width="60" height="30" as="geometry" />
        </mxCell>
      </root>
    </mxGraphModel>
  </diagram>
</mxfile>
